<svg fill="none" height="955" viewBox="0 0 1881 955" width="1881" xmlns="http://www.w3.org/2000/svg" xmlns:xlink="http://www.w3.org/1999/xlink"><filter id="a" color-interpolation-filters="sRGB" filterUnits="userSpaceOnUse" height="56" width="56" x="1201" y="498"><feFlood flood-opacity="0" result="BackgroundImageFix"/><feColorMatrix in="SourceAlpha" type="matrix" values="0 0 0 0 0 0 0 0 0 0 0 0 0 0 0 0 0 0 127 0"/><feOffset dy="4"/><feGaussianBlur stdDeviation="8"/><feColorMatrix type="matrix" values="0 0 0 0 0 0 0 0 0 0 0 0 0 0 0 0 0 0 0.15 0"/><feBlend in2="BackgroundImageFix" mode="normal" result="effect1_dropShadow"/><feColorMatrix in="SourceAlpha" type="matrix" values="0 0 0 0 0 0 0 0 0 0 0 0 0 0 0 0 0 0 127 0"/><feOffset dy="1"/><feGaussianBlur stdDeviation=".5"/><feColorMatrix type="matrix" values="0 0 0 0 0 0 0 0 0 0 0 0 0 0 0 0 0 0 0.1 0"/><feBlend in2="effect1_dropShadow" mode="normal" result="effect2_dropShadow"/><feBlend in="SourceGraphic" in2="effect2_dropShadow" mode="normal" result="shape"/></filter><filter id="b" color-interpolation-filters="sRGB" filterUnits="userSpaceOnUse" height="56" width="56" x="601" y="580"><feFlood flood-opacity="0" result="BackgroundImageFix"/><feColorMatrix in="SourceAlpha" type="matrix" values="0 0 0 0 0 0 0 0 0 0 0 0 0 0 0 0 0 0 127 0"/><feOffset dy="4"/><feGaussianBlur stdDeviation="8"/><feColorMatrix type="matrix" values="0 0 0 0 0 0 0 0 0 0 0 0 0 0 0 0 0 0 0.15 0"/><feBlend in2="BackgroundImageFix" mode="normal" result="effect1_dropShadow"/><feColorMatrix in="SourceAlpha" type="matrix" values="0 0 0 0 0 0 0 0 0 0 0 0 0 0 0 0 0 0 127 0"/><feOffset dy="1"/><feGaussianBlur stdDeviation=".5"/><feColorMatrix type="matrix" values="0 0 0 0 0 0 0 0 0 0 0 0 0 0 0 0 0 0 0.1 0"/><feBlend in2="effect1_dropShadow" mode="normal" result="effect2_dropShadow"/><feBlend in="SourceGraphic" in2="effect2_dropShadow" mode="normal" result="shape"/></filter><filter id="c" color-interpolation-filters="sRGB" filterUnits="userSpaceOnUse" height="56" width="56" x="988" y="893"><feFlood flood-opacity="0" result="BackgroundImageFix"/><feColorMatrix in="SourceAlpha" type="matrix" values="0 0 0 0 0 0 0 0 0 0 0 0 0 0 0 0 0 0 127 0"/><feOffset dy="4"/><feGaussianBlur stdDeviation="8"/><feColorMatrix type="matrix" values="0 0 0 0 0 0 0 0 0 0 0 0 0 0 0 0 0 0 0.15 0"/><feBlend in2="BackgroundImageFix" mode="normal" result="effect1_dropShadow"/><feColorMatrix in="SourceAlpha" type="matrix" values="0 0 0 0 0 0 0 0 0 0 0 0 0 0 0 0 0 0 127 0"/><feOffset dy="1"/><feGaussianBlur stdDeviation=".5"/><feColorMatrix type="matrix" values="0 0 0 0 0 0 0 0 0 0 0 0 0 0 0 0 0 0 0.1 0"/><feBlend in2="effect1_dropShadow" mode="normal" result="effect2_dropShadow"/><feBlend in="SourceGraphic" in2="effect2_dropShadow" mode="normal" result="shape"/></filter><filter id="d" color-interpolation-filters="sRGB" filterUnits="userSpaceOnUse" height="56" width="56" x="1399" y="341"><feFlood flood-opacity="0" result="BackgroundImageFix"/><feColorMatrix in="SourceAlpha" type="matrix" values="0 0 0 0 0 0 0 0 0 0 0 0 0 0 0 0 0 0 127 0"/><feOffset dy="4"/><feGaussianBlur stdDeviation="8"/><feColorMatrix type="matrix" values="0 0 0 0 0 0 0 0 0 0 0 0 0 0 0 0 0 0 0.15 0"/><feBlend in2="BackgroundImageFix" mode="normal" result="effect1_dropShadow"/><feColorMatrix in="SourceAlpha" type="matrix" values="0 0 0 0 0 0 0 0 0 0 0 0 0 0 0 0 0 0 127 0"/><feOffset dy="1"/><feGaussianBlur stdDeviation=".5"/><feColorMatrix type="matrix" values="0 0 0 0 0 0 0 0 0 0 0 0 0 0 0 0 0 0 0.1 0"/><feBlend in2="effect1_dropShadow" mode="normal" result="effect2_dropShadow"/><feBlend in="SourceGraphic" in2="effect2_dropShadow" mode="normal" result="shape"/></filter><filter id="e" color-interpolation-filters="sRGB" filterUnits="userSpaceOnUse" height="56" width="56" x="406" y="261"><feFlood flood-opacity="0" result="BackgroundImageFix"/><feColorMatrix in="SourceAlpha" type="matrix" values="0 0 0 0 0 0 0 0 0 0 0 0 0 0 0 0 0 0 127 0"/><feOffset dy="4"/><feGaussianBlur stdDeviation="8"/><feColorMatrix type="matrix" values="0 0 0 0 0 0 0 0 0 0 0 0 0 0 0 0 0 0 0.15 0"/><feBlend in2="BackgroundImageFix" mode="normal" result="effect1_dropShadow"/><feColorMatrix in="SourceAlpha" type="matrix" values="0 0 0 0 0 0 0 0 0 0 0 0 0 0 0 0 0 0 127 0"/><feOffset dy="1"/><feGaussianBlur stdDeviation=".5"/><feColorMatrix type="matrix" values="0 0 0 0 0 0 0 0 0 0 0 0 0 0 0 0 0 0 0.1 0"/><feBlend in2="effect1_dropShadow" mode="normal" result="effect2_dropShadow"/><feBlend in="SourceGraphic" in2="effect2_dropShadow" mode="normal" result="shape"/></filter><clipPath id="f"><path d="m595 258h64v64h-64z"/></clipPath><clipPath id="g"><path d="m1506 168h64v64h-64z"/></clipPath><g fill="#323539"><path d="m1363.46 817.608h-2.44v-23.525c0-.638-.52-1.155-1.16-1.155h-19.97v-2.773c0-.638-.52-1.155-1.15-1.155h-9.48c-.63 0-1.15.517-1.15 1.155v2.773h-19.97c-.64 0-1.16.517-1.16 1.155v23.525h-2.44c-.63 0-1.15.517-1.15 1.155v33.082c0 .638.52 1.155 1.15 1.155h4.88 49.16 4.88c.63 0 1.15-.517 1.15-1.155v-33.082c0-.638-.52-1.155-1.15-1.155zm-1.16 24.138c-.9.102-1.76.322-2.57.642v-22.469h2.57zm-4.88-17.363h-16.72v-2.873h16.72zm-19.03-2.805v10.601h-8.78v-10.601zm-17.55-2.379c.16-.337.31-.683.45-1.023.29-.708.56-1.376.97-1.703.4-.324 1.11-.442 1.86-.566s1.51-.251 2.23-.598c.7-.34 1.27-.854 1.82-1.351.57-.517 1.11-1.006 1.64-1.125.49-.111 1.17.089 1.89.3.7.204 1.49.434 2.3.434s1.6-.23 2.3-.434c.72-.211 1.4-.411 1.89-.3.53.119 1.07.608 1.64 1.125.55.497 1.12 1.011 1.82 1.351.72.347 1.49.474 2.23.597.75.125 1.46.243 1.86.566.41.328.68.996.97 1.703.14.341.29.687.45 1.024zm6.46 2.311v2.873h-16.72v-2.873h.32zm-16.72 5.183h16.72v6.641c0 .638.52 1.155 1.16 1.155h11.08c.64 0 1.16-.517 1.16-1.155v-6.641h16.72v16.977c-2.21 1.637-3.74 4.148-4.06 7.019h-38.72c-.32-2.871-1.85-5.382-4.06-7.019zm19.84-35.382h7.16v1.617h-7.16zm-21.13 3.928h19.97 9.48 19.97v22.369h-.13c-.64 0-1.16.517-1.16 1.155v.436h-7.39c-.19-.157-.33-.296-.44-.434-.29-.36-.51-.896-.74-1.464-.37-.905-.79-1.932-1.67-2.634-.87-.698-1.96-.88-2.92-1.04-.61-.101-1.19-.196-1.61-.399-.4-.195-.82-.578-1.27-.983-.73-.662-1.56-1.412-2.67-1.664-1.08-.245-2.13.063-3.06.335-.6.175-1.17.341-1.65.341s-1.05-.166-1.65-.341c-.93-.272-1.98-.58-3.05-.336-1.12.253-1.95 1.003-2.68 1.665-.45.405-.87.788-1.27.983-.42.203-1 .299-1.61.399-.96.16-2.05.342-2.92 1.041-.88.702-1.3 1.728-1.67 2.633-.23.568-.45 1.104-.74 1.465-.11.137-.25.276-.44.433h-7.39v-.435c0-.639-.52-1.156-1.16-1.156h-.13zm-1.02 24.68v22.469c-.81-.32-1.67-.54-2.57-.642v-21.827zm-2.57 30.77v-6.614c3.41.504 6.11 3.206 6.61 6.614h-2.89zm52.88 0h-2.89c.5-3.408 3.2-6.11 6.61-6.614v6.614z"/><path d="m1334 804.018c.64 0 1.16-.517 1.16-1.155v-2.773c0-.638-.52-1.155-1.16-1.155s-1.16.517-1.16 1.155v2.773c0 .638.52 1.155 1.16 1.155z"/><path d="m1325.71 805.323c.18.445.61.713 1.06.713.15 0 .3-.028.45-.088.59-.244.87-.92.62-1.509l-1.61-3.901c-.25-.589-.92-.869-1.51-.625s-.87.92-.63 1.51z"/><path d="m1319.51 809.467c.22.225.52.338.81.338.3 0 .59-.112.82-.338.45-.451.45-1.182 0-1.633l-1.96-1.963c-.45-.451-1.18-.452-1.63-.001-.46.452-.46 1.183-.01 1.634z"/><path d="m1312.21 814.551 3.9 1.616c.15.06.3.088.44.088.46 0 .89-.268 1.07-.713.25-.59-.03-1.265-.62-1.51l-3.9-1.615c-.59-.245-1.27.035-1.51.625-.25.589.03 1.265.62 1.509z"/><path d="m1350.38 815.542c.18.445.61.713 1.07.713.14 0 .29-.028.44-.088l3.9-1.616c.59-.244.87-.92.62-1.509-.24-.59-.92-.87-1.51-.625l-3.9 1.615c-.59.245-.87.92-.62 1.51z"/><path d="m1347.68 809.805c.29 0 .59-.113.81-.338l1.97-1.963c.45-.451.45-1.183-.01-1.634-.45-.451-1.18-.451-1.63.001l-1.96 1.962c-.45.452-.45 1.183 0 1.634.23.226.52.338.82.338z"/><path d="m1340.78 805.948c.15.06.3.088.45.088.45 0 .88-.268 1.06-.713l1.62-3.9c.24-.59-.04-1.266-.63-1.51s-1.26.036-1.51.625l-1.61 3.901c-.25.589.03 1.265.62 1.509z"/><path d="m1334 830.33c1.9 0 3.45-1.548 3.45-3.452s-1.55-3.452-3.45-3.452-3.45 1.548-3.45 3.452 1.55 3.452 3.45 3.452zm0-4.594c.63 0 1.14.513 1.14 1.142 0 .63-.51 1.142-1.14 1.142s-1.14-.512-1.14-1.142c0-.629.51-1.142 1.14-1.142z"/><g clip-path="url(#f)"><path d="m628.23 273.933c-2.58 0-4.678 2.098-4.678 4.678s2.098 4.678 4.678 4.678 4.678-2.098 4.678-4.678-2.098-4.678-4.678-4.678zm0 7.109c-1.34 0-2.431-1.091-2.431-2.431s1.091-2.431 2.431-2.431 2.431 1.091 2.431 2.431-1.091 2.431-2.431 2.431z"/><path d="m652.806 311.938-.551-.531c-3.516-3.394-5.532-8.143-5.532-13.03v-4.902c0-7.701-3.452-14.61-8.888-19.265l3.921-5.552c.338-.478.252-1.135-.196-1.51-.705-.591-1.44-1.138-2.2-1.641l.278-.67c1.043-2.519-.158-5.418-2.676-6.461-2.52-1.043-5.418.158-6.461 2.678l-.317.765c-.501-.091-1.004-.17-1.512-.23l-.716-.084c-.594-.07-1.138.337-1.239.926l-1.041 6.054c-1.402-.242-2.843-.369-4.313-.369h-4.201c-8.994 0-16.311 7.317-16.311 16.312 0 .62.503 1.123 1.124 1.123h18.264v2.96c0 9.643 5.411 18.045 13.355 22.333v6.961h-4.368c-.919 0-1.74.549-2.092 1.399-.352.849-.159 1.818.491 2.468.219.219.505.328.791.328.287 0 .575-.11.795-.33.438-.439.435-1.152-.004-1.591-.001-.008.006-.023.019-.026h5.492c.759 0 1.473.296 2.01.833l.187.187c.22.219.507.329.795.329.287 0 .575-.11.795-.329.438-.439.438-1.151 0-1.59l-.187-.186c-.691-.691-1.546-1.157-2.476-1.366v-6.013c3.005 1.257 6.301 1.953 9.757 1.953h6.426c.458 0 .871-.278 1.042-.703.172-.425.068-.912-.261-1.23zm-20.228-50.024c.569-1.375 2.15-2.03 3.524-1.461s2.029 2.15 1.46 3.524l-.152.365c-1.588-.853-3.264-1.528-5.004-2.013zm-3.827 1.951c3.852.514 7.476 2.013 10.559 4.361l-.672.951c-1.39-.981-2.878-1.82-4.441-2.493-1.812-.781-3.706-1.336-5.644-1.663zm-.579 3.371c1.763.296 3.487.801 5.136 1.512 1.419.612 2.771 1.373 4.034 2.265l-1.278 1.81c-2.444-1.745-5.21-3.066-8.189-3.858zm-11.009 3.128h3.076v7.138c-8.394.225-14.121 2.921-16.953 4.647 1.093-6.675 6.898-11.785 13.877-11.785zm-11.333 12.94c.497-.26 1.051-.53 1.662-.799 2.697-1.187 7.039-2.588 12.747-2.754v3.553zm16.693 6.487c3.268.207 6.398 1.286 9.113 3.157 3.035 2.091 5.332 5.016 6.645 8.46l3.793 9.946c-10.665-1.639-18.949-10.595-19.551-21.563zm23.076 21.832c-.344 0-.686-.009-1.027-.024l-4.191-10.991c-1.475-3.872-4.058-7.16-7.47-9.511-3.102-2.137-6.685-3.355-10.424-3.559v-17.147c12.225.587 21.988 10.717 21.988 23.084v4.902c0 4.85 1.767 9.579 4.901 13.246z"/><path d="m627.561 277.708c-.392.29-.554.822-.389 1.281.16.443.588.745 1.059.745.521 0 .978-.371 1.095-.877.228-.993-.949-1.753-1.765-1.149z"/></g><g clip-path="url(#g)"><path d="m1519.66 216.454c-.44-.873-.8-1.789-1.08-2.722-.17-.589-.8-.923-1.38-.746-.59.177-.93.798-.75 1.386.32 1.055.73 2.089 1.22 3.075.19.391.59.617.99.617.17 0 .34-.037.5-.117.55-.274.77-.943.5-1.493z"/><path d="m1530.46 225.415c-3.48-.981-6.64-3.094-8.89-5.95-.38-.483-1.08-.565-1.56-.184-.49.381-.57 1.081-.19 1.563 2.55 3.222 6.11 5.606 10.03 6.714.1.029.2.042.31.042.48 0 .93-.32 1.07-.811.16-.592-.18-1.207-.77-1.374z"/><path d="m1544.81 194.43c4.78 3.232 7.64 8.591 7.64 14.338 0 3.671-1.15 7.18-3.3 10.148-.36.497-.25 1.193.24 1.555.2.143.43.213.66.213.34 0 .68-.159.9-.459 2.43-3.35 3.72-7.312 3.72-11.457 0-6.487-3.22-12.536-8.61-16.183-.51-.344-1.2-.21-1.55.299-.34.509-.21 1.201.3 1.546z"/><path d="m1534.04 190.359c0 .615.5 1.114 1.11 1.114 2.39 0 4.7.48 6.88 1.426.14.063.29.093.44.093.43 0 .84-.25 1.02-.669.25-.564-.01-1.22-.57-1.465-2.46-1.07-5.07-1.612-7.77-1.612-.61 0-1.11.499-1.11 1.113z"/><path d="m1559.7 175.724c-.61 0-1.11.499-1.11 1.114v2.56c0 2.763-2.25 5.01-5.01 5.01s-5.01-2.247-5.01-5.01v-1.336c0-3.99-3.25-7.236-7.24-7.236h-.06c-3.99 0-7.23 3.246-7.23 7.236v3.331h-4.46c-.61 0-1.11.499-1.11 1.114v4.008c-9.56 2.877-16.55 11.763-16.55 22.253 0 12.81 10.42 23.232 23.23 23.232s23.23-10.422 23.23-23.232c0-10.49-6.98-19.376-16.55-22.253v-4.008c0-.615-.5-1.114-1.11-1.114h-4.46v-3.331c0-2.762 2.25-5.009 5.01-5.009h.06c2.77 0 5.01 2.247 5.01 5.009v1.336c0 3.99 3.25 7.236 7.24 7.236s7.24-3.246 7.24-7.236v-2.56c0-.615-.5-1.114-1.12-1.114zm-3.54 33.044c0 11.582-9.43 21.005-21.01 21.005s-21.01-9.423-21.01-21.005c0-11.583 9.43-21.006 21.01-21.006s21.01 9.423 21.01 21.006zm-16.56-22.803c-1.44-.281-2.93-.43-4.45-.43s-3.01.149-4.45.43v-2.345h8.9z"/><path d="m1561.28 172.379 2.48-2.478c.43-.435.43-1.14 0-1.575-.44-.435-1.14-.435-1.58 0l-2.48 2.479-2.48-2.479c-.43-.435-1.14-.435-1.57 0-.44.435-.44 1.14 0 1.575l2.48 2.478-2.48 2.479c-.44.434-.44 1.139 0 1.574.22.217.5.326.79.326.28 0 .57-.109.78-.326l2.48-2.478 2.48 2.478c.22.217.5.326.79.326.28 0 .57-.109.79-.326.43-.435.43-1.14 0-1.574z"/></g><path d="m132.23 524.804c1.701 0 3.085 1.384 3.085 3.084 0 1.701-1.384 3.085-3.085 3.085s-3.084-1.384-3.084-3.085c0-1.7 1.383-3.084 3.084-3.084zm0 4.091c.555 0 1.007-.452 1.007-1.007s-.452-1.007-1.007-1.007-1.007.452-1.007 1.007.452 1.007 1.007 1.007z"/><path d="m125.071 524.804c1.7 0 3.084 1.384 3.084 3.084 0 1.701-1.384 3.085-3.084 3.085-1.701 0-3.085-1.384-3.085-3.085 0-1.7 1.384-3.084 3.085-3.084zm0 4.091c.555 0 1.006-.452 1.006-1.007s-.451-1.007-1.006-1.007c-.556 0-1.007.452-1.007 1.007s.451 1.007 1.007 1.007z"/><path d="m117.911 524.804c1.7 0 3.084 1.384 3.084 3.084 0 1.701-1.384 3.085-3.084 3.085-1.701 0-3.085-1.384-3.085-3.085 0-1.7 1.384-3.084 3.085-3.084zm0 4.091c.555 0 1.006-.452 1.006-1.007s-.451-1.007-1.006-1.007c-.556 0-1.007.452-1.007 1.007s.452 1.007 1.007 1.007z"/><path d="m95.0314 515.914c.1299-.559.6883-.907 1.247-.776l17.4876 4.064c.47.109.803.529.803 1.012 0 .842.686 1.528 1.529 1.528h7.934v-15.942c-.907.981-2.168 1.539-3.521 1.539-1.483 0-2.86-.67-3.776-1.837l-.784-1-.785 1c-.916 1.168-2.292 1.837-3.776 1.837s-2.86-.669-3.776-1.837l-1.29-1.644h-1.445c-.574 0-1.039-.465-1.039-1.039s.465-1.039 1.039-1.039h19.153v-5.123c-.907.982-2.168 1.539-3.521 1.539-1.483 0-2.86-.669-3.776-1.837l-1.289-1.643h-1.618c-.574 0-1.039-.465-1.039-1.039s.465-1.039 1.039-1.039h10.204v-4.153h-2.213c-.508 0-.942-.368-1.025-.87l-.719-4.359c-.049-.301.036-.609.233-.841.198-.233.487-.367.792-.367h2.932v-4.009c0-.574.465-1.039 1.039-1.039.573 0 1.038.465 1.038 1.039v4.009h2.932c.305 0 .595.134.792.366.197.233.283.541.233.842l-.719 4.359c-.083.502-.517.87-1.025.87h-2.212v4.153h10.204c.573 0 1.038.465 1.038 1.039s-.465 1.039-1.038 1.039h-1.616l-1.289 1.643c-.916 1.168-2.292 1.837-3.776 1.837-1.354 0-2.617-.558-3.523-1.542v5.126h19.152c.573 0 1.039.465 1.039 1.039s-.466 1.039-1.039 1.039h-1.445l-1.288 1.642c-.916 1.168-2.293 1.838-3.777 1.838s-2.861-.67-3.777-1.838l-.783-.998-.783.999c-.916 1.168-2.293 1.837-3.777 1.837-1.353 0-2.616-.558-3.523-1.542v15.946h3.562c1.039 0 1.884-.845 1.884-1.884v-6.702c0-.573.465-1.038 1.039-1.038h21.363c.574 0 1.039.465 1.039 1.038 0 .574-.465 1.039-1.039 1.039h-1.445v2.18h1.445c.574 0 1.039.465 1.039 1.038 0 .574-.465 1.039-1.039 1.039h-1.445v4.329c0 .574-.465 1.039-1.039 1.039h-3.706c-.134 1.823-.471 3.699-1.112 5.511h1.116c.574 0 1.039.465 1.039 1.039v7.403c0 .573-.465 1.038-1.039 1.038h-5.182c-.406 0-.775-.237-.944-.606l-.599-1.308c-3.441 2.481-8.508 4.103-15.876 4.103-12.509 0-22.734-9.974-23.172-22.4l-6.1897-1.439c-.5592-.13-.9068-.688-.7769-1.247zm32.7846-31.789h-5.492l.377 2.282h4.739zm-7.305 21.136c.842 0 1.623-.38 2.142-1.042l.284-.361h-4.85l.283.361c.519.662 1.3 1.042 2.141 1.042zm-11.262-1.041c.519.662 1.3 1.041 2.141 1.041.842 0 1.622-.379 2.142-1.041l.284-.362h-4.851zm9.121-9.143c.519.662 1.3 1.042 2.141 1.042.842 0 1.623-.38 2.142-1.042l.284-.361h-4.85zm11.262 1.042c.842 0 1.622-.38 2.142-1.042l.283-.361h-4.85l.283.361c.52.662 1.301 1.042 2.142 1.042zm9.12 9.141c.842 0 1.622-.379 2.142-1.042l.282-.36h-4.849l.283.36c.52.663 1.3 1.042 2.142 1.042zm-9.12.001c.842 0 1.622-.38 2.142-1.042l.283-.361h-4.85l.284.361c.519.662 1.3 1.042 2.141 1.042zm20.802 8.934h-16.801v2.18h16.801zm-7.178 22.539h3.476v-5.325h-.968c-.754 1.473-1.755 2.867-3.062 4.113zm-18.086 2.188c12.822 0 19.717-5.08 20.513-15.102h-9.943c-.573 0-1.038-.465-1.038-1.039s.465-1.039 1.038-1.039h14.694v-3.29h-16.801v1.405c0 2.185-1.778 3.963-3.962 3.963h-13.573c-1.697 0-3.123-1.178-3.506-2.758l-8.492-1.974c.681 11.053 9.871 19.834 21.07 19.834z"/></g><path d="m1234.5 440.5c12.5 60.167-.4 174.8-152 152" stroke="#006bff" stroke-dasharray="6 6" stroke-width="2"/><path d="m1264 524c64.5 0 152 9 152 152" stroke="#c0c0c0" stroke-dasharray="6 6" stroke-width="2"/><g filter="url(#a)"><circle cx="1229" cy="522" fill="#fff" r="12"/></g><circle cx="1229" cy="522" fill="#006bff" r="6"/><path d="m763.5 497.5c-49.833 12.333-148.3 63.5-143.5 169.5" stroke="#006bff" stroke-dasharray="6 6" stroke-width="2"/><g filter="url(#b)"><circle cx="629" cy="604" fill="#fff" r="12"/></g><circle cx="629" cy="604" fill="#006bff" r="6"/><path d="m577 799.5c0 98.5 186 117.5 511 117.5" stroke="#006bff" stroke-dasharray="6 6" stroke-width="2"/><g filter="url(#c)"><circle cx="1016" cy="917" fill="#fff" r="12"/></g><circle cx="1016" cy="917" fill="#006bff" r="6"/><g filter="url(#d)"><circle cx="1427" cy="365" fill="#fff" r="12"/></g><circle cx="1427" cy="365" fill="#006bff" r="6"/><path d="m1880.5 1c-72 .00015-199.5 13.8-199.5 183s-161.33 191.833-242 182" stroke="#c0c0c0" stroke-dasharray="6 6" stroke-width="2"/><path d="m438.5 285.5c-72 0-193-28.001-193 183.5 0 211.5-89 181.499-248.5 181.499" stroke="#c0c0c0" stroke-dasharray="6 6" stroke-width="2"/><g filter="url(#e)"><circle cx="434" cy="285" fill="#fff" r="12"/></g><circle cx="434" cy="285" fill="#006bff" r="6"/><path d="m881.5 279.5c18.333 50.667 82.5 141.1 192.5 97.5" stroke="#006bff" stroke-dasharray="6 6" stroke-width="2"/><path d="m516.5 207.5c23-56.667 107.5-158.9999 261.5-114.9999" stroke="#006bff" stroke-dasharray="6 6" stroke-width="2"/><path d="m538.985 940.421c1.957-5.398 2.989-11.381 2.989-17.422 0-6.04-1.032-12.022-2.989-17.42.388-.014.747-.211.965-.535.225-.336.269-.763.115-1.137l-2.434-5.941c-.187-.457-.631-.755-1.124-.755h-1.599c-1.366-2.156-2.899-4.121-4.569-5.842-.229-.236-.543-.369-.872-.369h-34.932c-.329 0-.644.133-.872.369-1.669 1.721-3.202 3.686-4.569 5.842h-1.601c-.493 0-.937.298-1.124.755l-2.433 5.941c-.154.374-.111.801.115 1.137.217.324.576.521.964.535-1.957 5.398-2.989 11.38-2.989 17.42 0 6.041 1.032 12.024 2.989 17.422-.388.014-.747.211-.964.535-.226.336-.269.763-.115 1.137l2.433 5.941c.187.456.631.754 1.124.754h1.601c1.367 2.157 2.9 4.122 4.568 5.843.229.236.544.369.873.369h34.932c.328 0 .643-.133.872-.369 1.67-1.721 3.203-3.686 4.569-5.843h1.599c.493 0 .937-.298 1.124-.754l2.433-5.941c.154-.374.111-.801-.115-1.137-.217-.324-.576-.521-.964-.535zm-2.592-.003h-4.373c1.437-5.391 2.196-11.375 2.196-17.419 0-6.043-.759-12.026-2.196-17.417h4.373c2.062 5.345 3.151 11.346 3.151 17.417 0 6.072-1.089 12.074-3.151 17.419zm-41.896 0c-1.494-5.347-2.284-11.347-2.284-17.419 0-6.07.79-12.07 2.284-17.417h8.654c-.499 4.512-.793 9.353-.877 14.425-2.172.7-3.749 2.74-3.749 5.142 0 2.448 1.639 4.52 3.877 5.18.146 3.509.397 6.894.749 10.089zm9.428-12.298c-1.638 0-2.971-1.333-2.971-2.971 0-1.639 1.333-2.971 2.971-2.971s2.971 1.332 2.971 2.971c0 1.638-1.333 2.971-2.971 2.971zm1.672 12.298c-.354-3.146-.608-6.482-.758-9.948 2.544-.435 4.486-2.655 4.486-5.321 0-2.712-2.009-4.963-4.618-5.343.09-5.009.388-9.783.888-14.224h12.81c.601 5.351.918 11.347.918 17.417 0 6.072-.317 12.068-.918 17.419zm15.251-34.836h8.654c1.495 5.347 2.284 11.347 2.284 17.417 0 6.072-.789 12.072-2.284 17.419h-8.654c.592-5.372.904-11.36.904-17.419 0-6.058-.312-12.045-.904-17.417zm11.146-8.37h-2.977c-.624-1.339-1.299-2.602-2.017-3.783h1.947c1.082 1.153 2.1 2.421 3.047 3.783zm-5.676 0h-6.71c-.26-1.343-.54-2.608-.838-3.783h5.349c.782 1.158 1.517 2.424 2.199 3.783zm-10.057-3.783c.309 1.162.601 2.428.872 3.783h-10.266c.271-1.355.563-2.621.872-3.783zm-11.031 0c-.298 1.175-.578 2.44-.838 3.783h-6.71c.685-1.362 1.42-2.629 2.2-3.783zm-10.175 0h1.946c-.716 1.178-1.391 2.441-2.018 3.783h-2.974c.947-1.362 1.965-2.63 3.046-3.783zm-6.746 6.212h47.383l1.439 3.512h-50.261zm-.702 5.941h4.374c-1.438 5.391-2.197 11.374-2.197 17.417 0 6.044.759 12.028 2.197 17.419h-4.374c-2.062-5.345-3.151-11.347-3.151-17.419 0-6.071 1.089-12.072 3.151-17.417zm4.402 43.206h2.974c.627 1.342 1.302 2.605 2.018 3.783h-1.946c-1.081-1.153-2.099-2.421-3.046-3.783zm5.673 0h6.71c.26 1.343.54 2.608.838 3.783h-5.348c-.78-1.154-1.515-2.421-2.2-3.783zm10.057 3.783c-.309-1.162-.601-2.428-.872-3.783h10.266c-.271 1.355-.563 2.621-.872 3.783zm11.031 0c.298-1.175.578-2.44.838-3.783h6.71c-.682 1.359-1.417 2.625-2.199 3.783zm10.177 0h-1.947c.718-1.181 1.393-2.444 2.017-3.783h2.977c-.947 1.362-1.965 2.63-3.047 3.783zm6.745-6.212h-47.384l-1.438-3.512h50.261z" fill="#323539"/></svg>