<svg fill="none" height="64" viewBox="0 0 64 64" width="64" xmlns="http://www.w3.org/2000/svg"><g fill="#323539"><path d="m61.4553 28.6081h-2.4369v-23.52482c0-.63803-.5171-1.15529-1.1553-1.15529h-19.9714v-2.7727c0-.638028-.5171-1.15529-1.1553-1.15529h-9.4729c-.6381 0-1.1553.517262-1.1553 1.15529v2.7727h-19.97132c-.63803 0-1.15529.51726-1.15529 1.15529v23.52482h-2.43689c-.63803 0-1.1553.5172-1.1553 1.1553v33.0813c0 .638.51727 1.1553 1.1553 1.1553h4.87994 49.15066 4.88c.6382 0 1.1553-.5173 1.1553-1.1553v-33.0813c0-.6381-.5171-1.1553-1.1553-1.1553zm-1.1553 24.138c-.897.102-1.7582.3216-2.5694.6422v-22.4697h2.5694zm-4.88-17.3634h-16.7227v-2.8724l16.7229-.0004v2.8728zm-19.0333-2.8051v10.6011h-8.7736v-10.6011zm-17.5486-2.3783c.1666-.3374.3083-.6833.4475-1.0236.2895-.7077.5629-1.3759.9719-1.7026.4054-.3236 1.115-.4416 1.8663-.5665.7414-.1234 1.5079-.2508 2.2269-.5977.7032-.3395 1.2716-.8537 1.8212-1.3511.5717-.5171 1.1116-1.0056 1.6361-1.1246.4889-.1111 1.1716.0884 1.8942.2997.6959.2037 1.4848.4344 2.2981.4344s1.6022-.2307 2.2981-.4344c.7226-.2113 1.405-.4108 1.895-.2996.5237.1188 1.0636.6074 1.6353 1.1245.5494.4972 1.1178 1.0114 1.8213 1.3511.7188.3467 1.4854.4743 2.2266.5975.7513.1249 1.4608.2429 1.8658.5661.4091.327.6825.9952.9718 1.7027.1392.3405.2811.6866.4476 1.0238h-26.3237zm6.4644 2.311v2.8724h-16.72257v-2.8728l.31532.0004zm-16.72257 5.183h16.72257v6.6406c0 .638.5173 1.1553 1.1553 1.1553h11.0842c.6382 0 1.1553-.5173 1.1553-1.1553v-6.6406h16.7227v16.9763c-2.2118 1.6371-3.7372 4.1488-4.0637 7.0197h-38.713c-.3264-2.8709-1.8517-5.3825-4.06321-7.0196v-16.9764zm19.83897-35.38272h7.1623v1.61741h-7.1623zm-21.12673 3.92799h19.97143 9.4729 19.9713v22.36953h-.1323c-.6382 0-1.1553.5172-1.1553 1.1553v.4359h-7.3868c-.1899-.1571-.3319-.2967-.4418-.4346-.2875-.3599-.5067-.8962-.739-1.4638-.3702-.9053-.7899-1.9316-1.6687-2.6337-.875-.6983-1.966-.8798-2.9285-1.0398-.6073-.101-1.1813-.1964-1.6014-.3991-.404-.195-.8273-.578-1.2754-.9836-.7314-.6617-1.5603-1.4117-2.6735-1.6642-1.074-.2443-2.127.0636-3.0557.3352-.6001.1756-1.167.3415-1.6493.3415s-1.0493-.1659-1.6494-.3415c-.9287-.2717-1.9814-.5796-3.0549-.3353-1.114.2527-1.9429 1.0026-2.6743 1.6643-.4482.4055-.8715.7886-1.2753.9834-.4203.2029-.9941.2984-1.6015.3993-.9626.16-2.0535.3415-2.929 1.0402-.8785.702-1.2983 1.728-1.6686 2.6335-.2321.5676-.4513 1.1037-.74 1.4653-.1087.1367-.2505.2761-.4404.433h-7.38677v-.4359c0-.638-.51726-1.1553-1.15529-1.1553h-.13247zm-1.02282 24.68003v22.4697c-.81117-.3207-1.6724-.5404-2.56936-.6424v-21.8273zm-2.56936 30.7708v-6.6147c3.40857.5046 6.10994 3.2061 6.61461 6.6147h-2.88996zm52.87531 0h-2.8902c.5046-3.4086 3.2062-6.1102 6.6149-6.6147v6.6147z"/><path d="m32 15.0182c.6382 0 1.1553-.5173 1.1553-1.1553v-2.7727c0-.6381-.5171-1.15532-1.1553-1.15532-.6381 0-1.1553.51722-1.1553 1.15532v2.7727c0 .638.5172 1.1553 1.1553 1.1553z"/><path d="m23.7067 16.3231c.1842.4448.6144.7133 1.0678.7133.1474 0 .2971-.0285.4417-.0883.5895-.2441.8694-.92.6251-1.5095l-1.6158-3.9003c-.2442-.5895-.9203-.8694-1.5095-.6251-.5895.2442-.8694.9201-.625 1.5096z"/><path d="m17.5057 20.4667c.2257.2258.5214.3387.8172.3387.2954 0 .591-.1126.8166-.3381.4513-.451.4516-1.1824.0006-1.6337l-1.9609-1.9625c-.4511-.4513-1.1824-.4516-1.6338-.0006-.4513.451-.4516 1.1824-.0006 1.6337z"/><path d="m10.2112 25.551 3.9003 1.6159c.1446.0599.2943.0882.4418.0882.4531 0 .8834-.2686 1.0678-.7133.2441-.5895-.0356-1.2653-.6251-1.5094l-3.9003-1.6159c-.5895-.2443-1.26527.0356-1.50942.6251-.24446.5895.03543 1.2653.62492 1.5094z"/><path d="m48.379 26.5418c.1842.4449.6143.7133 1.0678.7133.1474 0 .2972-.0283.4418-.0882l3.9003-1.6159c.5893-.2441.8694-.9201.6251-1.5094-.2443-.5895-.9198-.8694-1.5096-.6251l-3.9003 1.6159c-.5893.2443-.8694.92-.6251 1.5094z"/><path d="m45.677 20.8053c.2958 0 .5917-.1129.8174-.3387l1.9608-1.9624c.451-.4514.4507-1.1829-.0008-1.6339-.4512-.4509-1.1827-.4509-1.6338.0006l-1.9607 1.9625c-.4511.4513-.4508 1.1828.0007 1.6338.2254.2254.5208.3381.8164.3381z"/><path d="m38.7839 16.9481c.1445.0599.2942.0882.4416.0882.4533 0 .8834-.2686 1.0678-.7135l1.6157-3.9002c.2443-.5895-.0355-1.2653-.6252-1.5095-.5891-.2441-1.2653.0356-1.5095.6253l-1.6157 3.9002c-.2441.5894.0358 1.2652.6253 1.5095z"/><path d="m31.9998 41.3304c1.9034 0 3.4521-1.5487 3.4521-3.4524 0-1.9036-1.5487-3.4523-3.4521-3.4523-1.9036 0-3.4523 1.5487-3.4523 3.4523 0 1.9037 1.5487 3.4524 3.4523 3.4524zm0-4.5939c.6295 0 1.1416.5121 1.1416 1.1417s-.5121 1.1417-1.1416 1.1417c-.6296 0-1.1417-.5121-1.1417-1.1417s.5121-1.1417 1.1417-1.1417z"/></g></svg>