<svg fill="none" height="38" viewBox="0 0 174 38" width="174" xmlns="http://www.w3.org/2000/svg"><g fill="#006bff"><path d="m10.556 8.67064c2.0143 0 3.8119.45237 5.3927 1.35716 1.6064.8796 2.8558 2.1111 3.7482 3.6944.9179 1.5834 1.3768 3.3929 1.3768 5.4286v8.1429c0 1.9854-.4462 3.7949-1.3386 5.4285s-2.1545 2.9154-3.7864 3.8453c-1.6063.955-3.4294 1.4325-5.4692 1.4325-1.83582 0-3.54416-.3644-5.12501-1.0933-1.58085-.7037-2.90672-1.7215-3.97762-3.0535-.28047-.3519-.420711-.7037-.420711-1.0556 0-.5278.267721-.9801.803171-1.3571.35697-.2262.71394-.3393 1.0709-.3393.63744 0 1.16014.2639 1.5681.7917.68844.8796 1.55536 1.5456 2.60076 1.998 1.0454.4775 2.23103.7162 3.55691.7162 1.2494 0 2.384-.3015 3.4039-.9047 1.0199-.5781 1.8359-1.4451 2.4478-2.6012.6119-1.131.9179-2.4881.9179-4.0714v-1.8473c-.7904 1.3823-1.8358 2.463-3.1362 3.2421s-2.7665 1.1687-4.39833 1.1687c-1.88682 0-3.58241-.4399-5.08677-1.3195-1.47886-.9048-2.639-2.1488-3.48042-3.7321-.815919-1.5834-1.22388-3.3803-1.22388-5.3909 0-2.0357.446208-3.8452 1.33862-5.4286.89242-1.5833 2.1418-2.8148 3.74815-3.6944 1.60634-.90479 3.42942-1.35716 5.46923-1.35716zm0 17.52976c1.3004 0 2.4605-.3016 3.4804-.9048 1.0454-.6031 1.8486-1.4325 2.4095-2.4881.5865-1.0806.8797-2.2996.8797-3.6567 0-1.3572-.2932-2.5761-.8797-3.6568-.5609-1.0806-1.3641-1.9226-2.4095-2.5257-1.0199-.6032-2.18-.9048-3.4804-.9048-1.30038 0-2.47327.3016-3.51867.9048-1.0199.6031-1.82307 1.4451-2.40952 2.5257-.58644 1.0807-.87967 2.2996-.87967 3.6568 0 1.3571.29323 2.5761.87967 3.6567.58645 1.0556 1.38962 1.885 2.40952 2.4881 1.0454.6032 2.21829.9048 3.51867.9048z"/><path d="m36.3648 8.67064c2.0143 0 3.8119.45237 5.3928 1.35716 1.6063.8796 2.8557 2.1111 3.7481 3.6944.9179 1.5834 1.3769 3.3929 1.3769 5.4286 0 2.0106-.4462 3.8075-1.3386 5.3909-.8925 1.5833-2.1418 2.8273-3.7482 3.7321-1.5808.8796-3.3912 1.3195-5.431 1.3195s-3.8629-.4399-5.4692-1.3195c-1.6064-.9048-2.8557-2.1488-3.7481-3.7321-.8925-1.5834-1.3387-3.3803-1.3387-5.3909 0-2.0357.4462-3.8452 1.3387-5.4286.8924-1.5833 2.1417-2.8148 3.7481-3.6944 1.6063-.90479 3.4294-1.35716 5.4692-1.35716zm0 3.39286c-1.3004 0-2.4732.3016-3.5186.9048-1.0199.6031-1.8231 1.4451-2.4096 2.5257-.5864 1.0807-.8796 2.2996-.8796 3.6568 0 1.3571.2932 2.5761.8796 3.6567.5865 1.0556 1.3897 1.885 2.4096 2.4881 1.0454.6032 2.2182.9048 3.5186.9048s2.4605-.3016 3.4804-.9048c1.0454-.6031 1.8486-1.4325 2.4096-2.4881.5864-1.0806.8796-2.2996.8796-3.6567 0-1.3572-.2932-2.5761-.8796-3.6568-.561-1.0806-1.3642-1.9226-2.4096-2.5257-1.0199-.6032-2.18-.9048-3.4804-.9048z"/><path d="m51.9236 1.88492c0-.55291.1785-1.005291.5355-1.357142.3569-.351852.8159-.527778 1.3768-.527778.561 0 1.02.175926 1.3769.527778.357.351851.5355.804232.5355 1.357142v20.58338c0 .9298.1785 1.6964.5354 2.2996.357.6031.8159.9047 1.3769.9047h.9561c.51 0 .918.1759 1.2239.5278.3315.3518.4972.8042.4972 1.3571s-.2422 1.0053-.7266 1.3572c-.4845.3518-1.1092.5278-1.8741.5278h-.0765c-1.0964 0-2.0908-.2891-2.9832-.8671-.8669-.6032-1.5426-1.4325-2.0271-2.4881-.4844-1.0807-.7267-2.287-.7267-3.619z"/><path d="m81.0494 0c.5865 0 1.0582.175926 1.4151.527778.357.351851.5355.816802.5355 1.394842v17.19048c0 1.9603-.4717 3.7447-1.4151 5.3532-.9179 1.5833-2.1801 2.8399-3.7864 3.7698-1.5809.9048-3.3529 1.3572-5.3163 1.3572-1.9633 0-3.7608-.4524-5.3927-1.3572-1.6063-.9299-2.8685-2.1865-3.7864-3.7698-.9179-1.6085-1.3768-3.3929-1.3768-5.3532s.4207-3.7321 1.2621-5.3155c.8669-1.6084 2.0398-2.8651 3.5186-3.7698 1.5044-.90479 3.1745-1.35716 5.0103-1.35716 1.4789 0 2.8557.30158 4.1306.90476 1.2749.6032 2.3586 1.4451 3.251 2.5258v-10.17858c0-.57804.1785-1.042991.5354-1.394842.3825-.351852.8542-.527778 1.4151-.527778zm-8.5672 26.2004c1.2749 0 2.4223-.3016 3.4422-.9048 1.0454-.6283 1.8613-1.4828 2.4478-2.5635.5864-1.0806.8797-2.287.8797-3.619s-.2933-2.5258-.8797-3.5814c-.5865-1.0806-1.4024-1.9226-2.4478-2.5257-1.0199-.6284-2.1673-.9425-3.4422-.9425-1.2748 0-2.435.3141-3.4804.9425-1.0199.6031-1.8358 1.4451-2.4477 2.5257-.5865 1.0556-.8797 2.2494-.8797 3.5814s.2932 2.5384.8797 3.619c.6119 1.0807 1.4278 1.9352 2.4477 2.5635 1.0454.6032 2.2056.9048 3.4804.9048z"/><path d="m104.235 8.15156c2.972 0 5.439 1.12694 7.403 3.38084.252.2755.378.601.378.9767 0 .5509-.277 1.0142-.831 1.3899-.252.1753-.542.2629-.869.2629-.579 0-1.07-.2254-1.473-.6761-.629-.6762-1.322-1.1646-2.077-1.4651-.73-.3255-1.574-.4883-2.531-.4883-1.938 0-3.512.6511-4.7208 1.9534-1.2086 1.2772-1.8129 2.9801-1.8129 5.1088 0 1.3523.277 2.5669.831 3.6437.5791 1.0519 1.3722 1.8783 2.3797 2.4793 1.032.6011 2.203.9016 3.512.9016 1.712 0 3.097-.4383 4.155-1.3148.478-.3506.944-.5259 1.397-.5259.353 0 .68.1127.982.3381.479.4007.718.8515.718 1.3523 0 .3757-.151.7137-.453 1.0143-1.813 1.6779-4.079 2.5168-6.799 2.5168-1.989 0-3.777-.4508-5.363-1.3523-1.5863-.9016-2.8326-2.1412-3.7391-3.7189-.8813-1.6028-1.3219-3.3809-1.3219-5.3342 0-2.0035.428-3.7941 1.2841-5.3718.8813-1.6028 2.1025-2.8424 3.6636-3.71892 1.5613-.90155 3.3233-1.35232 5.2873-1.35232z"/><path d="m127.108 8.15156c1.989 0 3.764.45077 5.325 1.35232 1.586.87652 2.82 2.10362 3.701 3.68132.907 1.5778 1.36 3.3809 1.36 5.4094 0 2.0034-.441 3.794-1.322 5.3717s-2.115 2.8174-3.701 3.7189c-1.561.8765-3.349 1.3148-5.363 1.3148-2.015 0-3.815-.4383-5.401-1.3148-1.587-.9015-2.82-2.1412-3.702-3.7189-.881-1.5777-1.322-3.3683-1.322-5.3717 0-2.0285.441-3.8316 1.322-5.4094.882-1.5777 2.115-2.8048 3.702-3.68132 1.586-.90155 3.386-1.35232 5.401-1.35232zm0 3.38084c-1.285 0-2.443.3005-3.475.9015-1.007.6011-1.8 1.44-2.38 2.5169-.579 1.0768-.868 2.2914-.868 3.6438 0 1.3523.289 2.5669.868 3.6437.58 1.0519 1.373 1.8783 2.38 2.4793 1.032.6011 2.19.9016 3.475.9016 1.284 0 2.429-.3005 3.437-.9016 1.032-.601 1.825-1.4274 2.379-2.4793.579-1.0768.869-2.2914.869-3.6437 0-1.3524-.29-2.567-.869-3.6438-.554-1.0769-1.347-1.9158-2.379-2.5169-1.008-.601-2.153-.9015-3.437-.9015z"/><path d="m143.605 10.2176c0-.57598.176-1.03928.529-1.38988.378-.35061.844-.52591 1.397-.52591.58 0 1.045.1753 1.398.52591.352.3506.529.8139.529 1.38988v16.7163c0 .551-.177 1.0143-.529 1.3899-.353.3506-.818.5259-1.398.5259-.553 0-1.019-.1753-1.397-.5259-.353-.3756-.529-.8389-.529-1.3899zm1.926-10.2176c.68 0 1.259.250432 1.738.751295.503.475815.755 1.051815.755 1.727975 0 .67617-.252 1.26469-.755 1.76555-.479.47582-1.058.71373-1.738.71373-.679 0-1.271-.23791-1.775-.71373-.478-.50086-.717-1.08938-.717-1.76555 0-.67616.239-1.25216.717-1.727975.504-.500863 1.096-.751295 1.775-.751295z"/><path d="m164.898 8.11399c1.737 0 3.298.37565 4.683 1.12694 1.385.7513 2.468 1.85317 3.248 3.30567.781 1.4275 1.171 3.1555 1.171 5.184v9.2409c0 .551-.189 1.0143-.567 1.3899-.352.3506-.805.5259-1.359.5259s-1.02-.1753-1.398-.5259c-.352-.3756-.528-.8389-.528-1.3899v-9.2409c0-2.0285-.554-3.5562-1.662-4.5829-1.083-1.0518-2.531-1.5778-4.344-1.5778-1.057 0-2.027.2129-2.908.6386-.856.4258-1.536 1.0018-2.039 1.728-.479.7263-.718 1.5402-.718 2.4417v10.5933c0 .551-.176 1.0143-.529 1.3899-.352.3506-.818.5259-1.397.5259-.554 0-1.02-.1753-1.398-.5259-.352-.3756-.528-.8389-.528-1.3899v-16.7539c0-.57598.176-1.03928.528-1.38988.378-.35061.844-.52591 1.398-.52591.579 0 1.045.1753 1.397.52591.353.3506.529.8139.529 1.38988v.4132c.806-.80135 1.763-1.41491 2.87-1.84065 1.108-.45077 2.292-.67616 3.551-.67616z"/></g><path d="m136.484 10.5167c-4.688-4.68819-12.278-4.68946-16.968-.0007-4.164 4.1622-4.61 10.5682-1.443 15.2212 3.66 5.379 11.007 6.9538 16.588 3.2294 6.361-4.2449 7.125-13.1477 1.823-18.4499z" fill="#ff9950"/><path d="m138.594 13.7821c-.108-.1966-.282-.3509-.493-.4363-1.463-.5913-3.014-.8912-4.609-.8912-9.109 0-14.85 9.4798-10.622 17.2104.108.1966.282.3508.493.4362 3.738 1.5118 7.93 1.0949 11.287-1.0872 5.313-3.4539 6.752-10.0982 3.944-15.2319z" fill="#ff6b00"/><path d="m44.484 10.5167c-4.6885-4.68819-12.2784-4.68946-16.9684-.0007-4.1632 4.1622-4.6091 10.5682-1.4426 15.2212 3.6605 5.379 11.0069 6.9538 16.588 3.2294 6.3609-4.2449 7.1254-13.1477 1.823-18.4499z" fill="#ff9950"/><path d="m46.5939 13.7821c-.1076-.1966-.2819-.3509-.4932-.4363-1.4627-.5913-3.0135-.8912-4.6092-.8912-9.1083 0-14.8493 9.4798-10.6213 17.2104.1075.1966.2817.3508.493.4362 3.7379 1.5118 7.9296 1.0949 11.2866-1.0872 5.3135-3.4539 6.7518-10.0982 3.9441-15.2319z" fill="#ff6b00"/></svg>