<svg fill="none" height="32" viewBox="0 0 32 32" width="32" xmlns="http://www.w3.org/2000/svg"><path d="m16 32c8.8366 0 16-7.1634 16-16 0-8.83656-7.1634-16-16-16-8.83656 0-16 7.16344-16 16 0 8.8366 7.16344 16 16 16z" fill="#4d76a1"/><path clip-rule="evenodd" d="m15.3957 23.0174h1.2558s.3793-.0416.573-.2504c.1783-.1917.1726-.5516.1726-.5516s-.0246-1.6851.7575-1.9332c.7709-.2444 1.7609 1.6286 2.8102 2.3488.7935.545 1.3964.4255 1.3964.4255l2.8057-.0391s1.4677-.0904.7718-1.2444c-.0571-.0944-.4053-.8536-2.0861-2.4137-1.7592-1.6329-1.5236-1.3688.5955-4.1933 1.2906-1.7201 1.8066-2.7703 1.6455-3.2201-.1538-.4284-1.103-.3151-1.103-.3151l-3.159.0197s-.2342-.032-.4079.0718c-.1697.1019-.2789.3392-.2789.3392s-.5 1.3311-1.1668 2.4631c-1.4067 2.3886-1.9692 2.5147-2.199 2.3664-.5348-.3457-.4013-1.3887-.4013-2.1297 0-2.3148.3511-3.28-.6837-3.5298-.3434-.083-.5961-.1378-1.4743-.1466-1.1271-.0117-2.0812.0034-2.6214.2681-.3594.176-.6366.5681-.4677.5907.2087.0279.6816.1275.9323.4689.3237.4403.3123 1.4295.3123 1.4295s.186 2.7249-.4343 3.0634c-.4259.2322-1.01-.2418-2.2641-2.4089-.6426-1.11-1.12772-2.337-1.12772-2.337s-.09355-.2293-.2604-.352c-.20251-.1486-.48544-.1959-.48544-.1959l-3.00189.0196s-.45064.0126-.61607.2085c-.14717.1743-.01169.5348-.01169.5348s2.35017 5.4984 5.01121 8.2693c2.44 2.5404 5.2109 2.3735 5.2109 2.3735z" fill="#fff" fill-rule="evenodd"/></svg>