<svg fill="none" height="96" viewBox="0 0 96 96" width="96" xmlns="http://www.w3.org/2000/svg"><path d="m92.2582 20.0191c-3.4653-4.1193-9.8633-5.7996-22.0819-5.7996h-44.3535c-12.4983 0-19.00463 1.7887-22.45692 6.1743-3.36588 4.2761-3.36588 10.5764-3.36588 19.2963v16.6201c0 16.8932 3.9936 25.4704 25.8228 25.4704h44.3538c10.5959 0 16.4674-1.4828 20.2659-5.1181 3.8955-3.7279 5.5575-9.8146 5.5575-20.3523v-16.6201c0-9.1958-.2604-15.5334-3.7418-19.671zm-30.6259 30.2756-20.1408 10.5263c-.4503.2353-.9426.3521-1.4344.3521-.5568 0-1.1124-.1499-1.6045-.4478-.9265-.5615-1.4923-1.5657-1.4923-2.649v-20.985c0-1.0814.5642-2.0847 1.4889-2.6465.925-.5617 2.0755-.6001 3.0352-.1015l20.1408 10.4584c1.0247.532 1.6682 1.5899 1.6698 2.744.0012 1.1551-.6395 2.2145-1.6627 2.749z" fill="#006bff"/></svg>